<!-- Generator: Adobe Illustrator 19.0.0, SVG Export Plug-In  -->
<svg version="1.1"
	 xmlns="http://www.w3.org/2000/svg" xmlns:xlink="http://www.w3.org/1999/xlink" xmlns:a="http://ns.adobe.com/AdobeSVGViewerExtensions/3.0/"
	 x="0px" y="0px" width="136.0283px" height="75.5938px" viewBox="0 0 136.0283 75.5938"
	 style="enable-background:new 0 0 136.0283 75.5938;" xml:space="preserve">
<style type="text/css">
	.st0{fill:#FAFAFA;}
</style>
<defs>
</defs>
<g id="XMLID_32_">
	<path id="XMLID_33_" class="st0" d="M136.0283,75.5938H0V0h136.0283V75.5938z M2,73.5938h132.0283V2H2V73.5938z"/>
</g>
<g id="XMLID_21_">
	<path id="XMLID_30_" class="st0" d="M27.1099,48.8184h12.6563v1.7754H25.0005V25h2.1094V48.8184z"/>
	<path id="XMLID_27_" class="st0" d="M61.8091,39.8887c0,3.293-0.9082,5.9619-2.7246,8.0068s-4.248,3.0674-7.2949,3.0674
		c-3,0-5.3936-1.0225-7.1807-3.0674s-2.6807-4.7139-2.6807-8.0068v-4.166c0-3.2813,0.8906-5.9502,2.6719-8.0068
		s4.1719-3.085,7.1719-3.085c3.0469,0,5.4814,1.0283,7.3037,3.085s2.7334,4.7256,2.7334,8.0068V39.8887z M59.6997,35.6875
		c0-2.7422-0.7002-4.9629-2.1006-6.6621s-3.3428-2.5488-5.8271-2.5488c-2.4258,0-4.3213,0.8496-5.6865,2.5488
		s-2.0479,3.9199-2.0479,6.6621v4.2012c0,2.7656,0.6855,4.998,2.0566,6.6973s3.2695,2.5488,5.6953,2.5488
		c2.4961,0,4.4385-0.8467,5.8271-2.54s2.083-3.9287,2.083-6.7061V35.6875z"/>
	<path id="XMLID_25_" class="st0" d="M85.8208,47.5527c-0.5742,0.8555-1.6055,1.6377-3.0938,2.3467s-3.4102,1.0635-5.7656,1.0635
		c-3.0469,0-5.5078-0.9961-7.3828-2.9883s-2.8125-4.6348-2.8125-7.9277v-4.6934c0-3.2227,0.8936-5.8154,2.6807-7.7783
		s4.1514-2.9443,7.0928-2.9443c2.8125,0,4.9834,0.6797,6.5127,2.0391s2.4463,3.1934,2.751,5.502h-2.0918
		c-0.3047-1.7461-1.0137-3.1406-2.127-4.1836s-2.7949-1.5645-5.0449-1.5645c-2.3438,0-4.207,0.8203-5.5898,2.4609
		s-2.0742,3.7852-2.0742,6.4336v4.7285c0,2.7305,0.7354,4.9365,2.2061,6.6182s3.4307,2.5225,5.8799,2.5225
		c1.7227,0,3.167-0.2314,4.333-0.6943s1.9775-0.9873,2.4346-1.5732v-6.6797h-6.8203v-1.793h8.9121V47.5527z"/>
	<path id="XMLID_22_" class="st0" d="M111.0278,39.8887c0,3.293-0.9082,5.9619-2.7246,8.0068s-4.248,3.0674-7.2949,3.0674
		c-3,0-5.3936-1.0225-7.1807-3.0674s-2.6807-4.7139-2.6807-8.0068v-4.166c0-3.2813,0.8906-5.9502,2.6719-8.0068
		s4.1719-3.085,7.1719-3.085c3.0469,0,5.4814,1.0283,7.3037,3.085s2.7334,4.7256,2.7334,8.0068V39.8887z M108.9185,35.6875
		c0-2.7422-0.7002-4.9629-2.1006-6.6621s-3.3428-2.5488-5.8271-2.5488c-2.4258,0-4.3213,0.8496-5.6865,2.5488
		s-2.0479,3.9199-2.0479,6.6621v4.2012c0,2.7656,0.6855,4.998,2.0566,6.6973s3.2695,2.5488,5.6953,2.5488
		c2.4961,0,4.4385-0.8467,5.8271-2.54s2.083-3.9287,2.083-6.7061V35.6875z"/>
</g>
<g id="XMLID_18_">
	<path id="XMLID_20_" class="st0" d="M30.572,57.1719L1.5234,72.8193c-0.4858,0.2632-0.666,0.8179-0.4023,1.3032
		c0.1812,0.334,0.5249,0.4973,0.8799,0.4973c0.1611,0,0.3242,0.0528,0.4756-0.0297l32.2902-17.4183H30.572z"/>
	<path id="XMLID_19_" class="st0" d="M134.9072,1.5234c-0.2627-0.4854-0.8706-0.5806-1.3555-0.3164l-32.9709,17.9648h4.1948
		l29.7293-16.207C134.9907,2.7017,135.1709,2.0088,134.9072,1.5234z"/>
</g>
<g id="XMLID_15_">
	<path id="XMLID_17_" class="st0" d="M35.4475,19.1719L2.4766,1.207c-0.4854-0.2642-1.0918-0.126-1.3555,0.3594
		S1.0376,2.7231,1.5234,2.9863l29.7293,16.1855H35.4475z"/>
	<path id="XMLID_16_" class="st0" d="M134.5049,72.8193l-29.0486-15.6474h-4.1948l32.2902,17.4052
		c0.1514,0.0825,0.3145,0.0689,0.4756,0.0689c0.355,0,0.6987-0.1633,0.8799-0.4973
		C135.1709,73.6633,134.9907,73.0825,134.5049,72.8193z"/>
</g>
</svg>
