<!-- Generator: Adobe Illustrator 19.0.0, SVG Export Plug-In  -->
<svg version="1.1"
	 xmlns="http://www.w3.org/2000/svg" xmlns:xlink="http://www.w3.org/1999/xlink" xmlns:a="http://ns.adobe.com/AdobeSVGViewerExtensions/3.0/"
	 x="0px" y="0px" width="564.8343px" height="192.4772px" viewBox="0 0 564.8343 192.4772"
	 style="enable-background:new 0 0 564.8343 192.4772;" xml:space="preserve">
<style type="text/css">
	.st0{fill:#BDBDBD;}
	.st1{fill:#2979FF;}
</style>
<defs>
</defs>
<g id="XMLID_50_">
	<path id="XMLID_60_" class="st0" d="M282.0109,159.2162c-91.3308,0-182.6617,0.0002-273.9925-0.0005
		c-7.2628,0-8.0169-0.7449-8.0171-7.9236C0,113.9599-0.0013,76.6276,0.0027,39.2953c0.0007-6.3786,0.9486-7.31,7.4283-7.31
		c183.3281-0.0019,366.6562-0.0019,549.9843,0c6.4656,0.0001,7.4153,0.9367,7.416,7.3224
		c0.0039,37.5989,0.0047,75.1979-0.0007,112.7968c-0.0009,6.1136-1.0157,7.1094-7.2275,7.1096
		C465.7389,159.2171,373.8749,159.2162,282.0109,159.2162z M282.2235,155.1813c91.4536,0,182.9073-0.0251,274.3607,0.0929
		c3.6125,0.0047,4.3078-0.9634,4.2957-4.3888c-0.131-36.9276-0.1277-73.856-0.0024-110.7836
		c0.0112-3.2865-0.7352-4.1645-4.1061-4.1629C373.864,36.029,190.9567,36.0292,8.0494,35.9379
		c-3.3915-0.0017-4.103,0.9104-4.092,4.1769c0.1236,36.7943,0.1419,73.5895-0.0173,110.3836
		c-0.0165,3.807,0.8147,4.7868,4.7225,4.7814C99.8495,155.1525,191.0365,155.1813,282.2235,155.1813z"/>
	<path id="XMLID_59_" class="st0" d="M189.728,133.529c5.1971,0,10.3942,0.0162,15.5912-0.005
		c4.3708-0.0179,5.7327-1.5534,5.1018-5.9028c-2.964-20.4351-5.9656-40.8647-8.9469-61.2973
		c-1.2309-8.4364-2.4868-16.8697-3.6173-25.3197c-0.1561-1.1666-1.3714-3.0186,1.2079-3.4017
		c2.4284-0.3607,2.7878,1.0583,3.069,3.0157c3.9591,27.5576,7.9818,55.1061,11.9911,82.6565
		c0.4456,3.0622,0.395,6.0185,4.0723,7.8384c2.5798,1.2767,2.9456,4.9961,0.9459,7.0106c-2.8066,2.8274-2.0197,5.6793-1.5965,8.7523
		c0.1635,1.1875,0.4426,2.3669,0.5036,3.5585c0.0653,1.2753,1.1012,3.0007-1.5068,3.2011
		c-2.2826,0.1754-2.6128-1.1042-2.7954-2.8783c-0.2453-2.3836-0.6217-4.756-1.0098-7.1221
		c-0.6552-3.9947-2.6728-5.7459-6.7193-5.7555c-10.9271-0.0258-21.8543-0.0282-32.7814,0.0005
		c-4.4951,0.0118-7.8322,2.9651-8.4605,7.3691c-0.3011,2.1107-0.656,4.217-0.8582,6.3375c-0.1707,1.7909-1.2019,2.0902-2.7371,2.034
		c-1.9774-0.0724-1.5812-1.3544-1.4237-2.5275c0.3191-2.3771,0.6387-4.755,1.0208-7.1224c0.3438-2.1299,0.3896-4.0452-0.9091-6.0699
		c-1.3942-2.1737-1.2471-4.927,0.8269-6.5587c2.2332-1.757,2.3829-3.9977,2.7092-6.3369
		c3.8654-27.7141,7.7199-55.4298,11.5809-83.1445c0.147-1.055,0.2272-2.1349,0.522-3.15c0.4815-1.6587,1.965-1.229,3.0125-1.0177
		c1.8585,0.3749,0.966,1.9212,0.8257,2.9447c-2.1348,15.5777-4.3288,31.1472-6.5028,46.7195
		c-1.8055,12.9325-3.6062,25.8656-5.4019,38.7995c-0.6205,4.4689,1.8211,7.3426,6.2949,7.3656
		C179.0672,133.55,184.3976,133.529,189.728,133.529z"/>
	<path id="XMLID_58_" class="st0" d="M473.8877,64.3485c0,7.3318-0.005,14.6637,0.0017,21.9955
		c0.0049,5.3195,2.3545,7.6805,7.6372,7.6983c2.2662,0.0076,4.5339-0.0342,6.7981,0.038c1.6753,0.0534,2.9386-0.2644,4.1366-1.7338
		c2.041-2.5036,4.8777-2.767,7.5243-1.0512c1.6335,1.059,2.9088,0.7682,4.4496,0.1317c6.6463-2.7454,10.906-7.2096,11.876-14.7038
		c1.3062-10.0911,1.5039-20.1878,1.1321-30.323c-0.0782-2.1309-0.1595-4.2618-0.25-6.3923c-0.0542-1.2776-0.0256-2.4012,1.7581-2.43
		c1.5405-0.0249,2.5138,0.2577,2.5925,2.1156c0.5707,13.4605,0.9991,26.8996-1.5229,40.2539
		c-1.5086,7.9882-6.9783,12.2757-13.8045,15.3585c-4.9342,2.2283-5.6587,3.5842-3.9648,8.8663
		c4.8024,14.976,9.6929,29.9239,14.4219,44.9229c0.4224,1.3396,2.5966,3.2881,0.2412,4.3294
		c-2.9216,1.2916-3.7026-1.1795-4.4393-3.4948c-4.7278-14.8578-9.5353-29.6903-14.3224-44.5292
		c-0.9643-2.989-6.1351-6.8857-9.3393-6.9635c-2.9312-0.0712-5.8666-0.0881-8.7976-0.0196
		c-3.6958,0.0864-6.1128,2.5394-6.1186,6.2249c-0.0236,15.0636,0.0162,30.1273-0.0519,45.1906
		c-0.0065,1.4473,1.053,3.6898-1.9875,3.7868c-3.3174,0.1058-2.269-2.3216-2.2755-3.9094
		c-0.0619-14.93-0.0494-29.8605-0.0213-44.7907c0.0036-1.9063-0.1987-3.5021-1.6913-5.0503
		c-2.2149-2.2975-2.2783-5.2395-0.1292-7.5711c1.5416-1.6725,1.8319-3.3481,1.8265-5.4048
		c-0.0398-15.1968-0.0452-30.3939,0.0164-45.5905c0.006-1.4666-0.9887-3.6701,2.0594-3.7362
		c2.9944-0.0649,2.2116,2.0361,2.2216,3.5865C473.9149,48.8848,473.8877,56.6168,473.8877,64.3485z"/>
	<path id="XMLID_57_" class="st0" d="M93.1696,141.8272c2.04-18.1157-5.3059-31.709-19.6969-42.33
		c-5.972-4.4075-11.2644-9.7691-16.6689-14.9041c-6.6032-6.274-10.5633-13.9565-11.4627-23.1255
		c-0.6906-7.0405-1.0549-14.0792-0.5363-21.152c0.1187-1.6195,0.2109-2.8025,2.3657-2.7644
		c2.3656,0.0418,2.0263,1.5436,2.0081,2.9947c-0.0936,7.458-0.3488,14.9081,0.7785,22.3397
		c0.9499,6.262,3.4055,11.6788,7.693,16.3619c6.9561,7.5979,14.8158,14.2297,22.7825,20.6577
		c11.4089,9.2054,17.0917,20.7765,16.8888,35.3764c-0.0704,5.0605,0.1237,10.1243,0.1562,15.1869
		c0.0101,1.5818,0.2231,3.2551-2.3346,3.1745c-2.7531-0.0868-1.9149-2.0002-1.9519-3.4208
		C93.1182,147.4254,93.1696,144.6256,93.1696,141.8272z"/>
	<path id="XMLID_56_" class="st0" d="M401.7287,96.0133c-0.0001,17.9942,0.0148,35.9884-0.0268,53.9825
		c-0.0035,1.5255,0.8319,3.7039-2.1826,3.6249c-2.7326-0.0716-1.9449-2.0534-1.9462-3.4518
		c-0.0341-36.3882-0.0335-72.7765-0.0023-109.1647c0.0012-1.4112-0.7495-3.3787,1.9757-3.4255
		c3.0181-0.0518,2.1494,2.1403,2.1532,3.6523C401.7445,59.4917,401.7287,77.7525,401.7287,96.0133z"/>
	<path id="XMLID_55_" class="st0" d="M284.9287,95.5886c0.0001,17.9942,0.0274,35.9885-0.049,53.9823
		c-0.0065,1.5332,1.202,4.0805-2.1349,4.0288c-3.0331-0.0469-1.9536-2.3667-1.9557-3.8059
		c-0.0547-36.1216-0.0555-72.2432,0.0064-108.3647c0.0023-1.3265-1.0837-3.4188,1.5275-3.8066
		c3.1265-0.4643,2.6004,1.7818,2.6012,3.5836C284.9316,59.3336,284.9287,77.4611,284.9287,95.5886z"/>
	<path id="XMLID_54_" class="st0" d="M330.2121,132.7745c2.5883-0.0318,4.2257,0.9635,5.2126,2.8968
		c1.0414,2.0401,1.325,4.6745-0.3968,5.9259c-3.3356,2.4243-2.9052,5.5892-2.9047,8.8432c0.0002,1.5587,0.385,3.2839-2.2325,3.1942
		c-2.3983-0.0821-1.9544-1.7095-1.9247-3.0771c0.0743-3.4356-0.1194-6.496-2.4616-9.5988
		C322.8331,137.42,326.0875,132.6785,330.2121,132.7745z"/>
	<path id="XMLID_53_" class="st0" d="M46.5561,132.7824c4.2989,0.0825,7.3504,4.6779,4.8186,8.1073
		c-2.2899,3.1018-2.6053,6.1589-2.4544,9.612c0.0705,1.6144,0.2749,3.2511-2.2907,3.1302c-2.4347-0.1147-1.8281-1.8022-1.867-3.1365
		c-0.0941-3.2244,0.5172-6.4348-2.9073-8.8286c-1.7558-1.2273-1.4941-3.8727-0.4861-5.9184
		C42.4056,133.6448,44.1832,132.6448,46.5561,132.7824z"/>
	<path id="XMLID_52_" class="st0" d="M336.7975,51.0801c0.1884,3.4844-1.0973,5.4506-3.6114,6.2638
		c-2.5771,0.8335-5.0836,0.3651-6.6841-2.1054c-1.4299-2.2072-1.7541-5.1135,0.2426-6.5846
		c3.0706-2.2624,2.8282-5.0563,2.8114-8.0729c-0.0079-1.4106-0.369-2.9782,1.9963-3.0199c2.2564-0.0397,2.2081,1.3161,2.1804,2.858
		c-0.0566,3.1549-0.4818,6.3721,2.4059,8.7955C336.7278,49.7091,336.7379,50.8936,336.7975,51.0801z"/>
	<path id="XMLID_51_" class="st0" d="M100.7954,51.0665c0.1949,3.4864-1.0864,5.4559-3.5992,6.2739
		c-2.5759,0.8385-5.0983,0.3816-6.6856-2.0951c-1.5102-2.3562-1.7161-5.2887,0.4676-6.9074
		c2.8078-2.0813,2.5213-4.6069,2.5956-7.3449c0.0383-1.4097-0.7549-3.3472,1.9655-3.4232c2.6419-0.0739,2.1806,1.713,2.1779,3.236
		c-0.0054,3.0343-0.3864,6.1073,2.4157,8.4007C100.7243,49.6905,100.7362,50.8826,100.7954,51.0665z"/>
</g>
<g id="XMLID_17_">
	<path id="XMLID_49_" class="st1" d="M78.4169,0c2.6251,1.5961,5.7245,1.4116,8.5664,2.2531
		c13.1333,3.8889,20.2401,12.9684,23.1199,25.9329c0.7758,3.4925-1.9034,2.1584-3.1633,2.1638
		c-19.197,0.082-38.3946,0.0571-57.592,0.0571c-4.9327,0-9.8691-0.1157-14.7965,0.0446c-2.8015,0.0912-3.7053-0.4368-2.9019-3.5496
		c3.9436-15.281,13.8464-24.154,29.5448-26.096C61.9361,0.7142,62.8397,1.013,63.2169,0C68.2836,0,73.3503,0,78.4169,0z"/>
	<path id="XMLID_48_" class="st1" d="M313.6169,0c3.2539,0.8176,6.5594,1.472,9.7526,2.4817
		c12.2722,3.8806,19.2967,12.5174,22.2144,24.8216c0.5691,2.4003-0.0693,3.1734-2.6869,3.1625
		c-24.3443-0.101-48.6896-0.1358-73.0333,0.0185c-3.8388,0.0243-2.8778-2.0411-2.4272-3.9881
		c3.3084-14.2931,13.5764-23.3552,28.9749-25.667c0.7353-0.1104,1.6479,0.198,2.0056-0.8293C303.4836,0,308.5502,0,313.6169,0z"/>
	<path id="XMLID_47_" class="st1" d="M306.8236,160.7932c12.1189,0.0001,24.2384,0.0641,36.3562-0.0495
		c2.6915-0.0252,3.2203,0.4884,2.6318,3.31c-3.4963,16.7634-14.8328,26.5149-32.1029,28.0558
		c-8.3365,0.7438-16.4738,0.49-24.4139-1.9819c-13.3581-4.1586-20.0663-13.9908-22.5878-27.267
		c-0.5164-2.7188,1.2805-2.0374,2.5614-2.0466c6.2589-0.0449,12.5183-0.0207,18.7775-0.0208
		C294.3052,160.793,300.5644,160.7931,306.8236,160.7932z"/>
	<path id="XMLID_46_" class="st1" d="M70.8163,160.7935c12.1287-0.0002,24.2585,0.0884,36.3853-0.0622
		c3.0526-0.0379,3.5465,0.9622,2.9457,3.7037c-3.6473,16.6444-14.8282,26.0813-32.0972,27.6609
		c-10.2677,0.9392-20.1828,0.3461-29.5729-4.1326c-10.0978-4.8163-14.954-13.5105-17.2075-24.0196
		c-0.5046-2.3532,0.1056-3.2447,2.7613-3.2135C46.2913,160.8741,58.5543,160.7937,70.8163,160.7935z"/>
	<path id="XMLID_45_" class="st1" d="M494.9496,30.4067c-11.7229,0.0001-23.4477-0.1137-35.1674,0.077
		c-3.08,0.0501-3.8076-0.8972-3.7162-3.8232c0.212-6.7873,0.175-13.5884,0.0115-20.3784c-0.0601-2.493,0.7309-3.1533,3.1648-3.134
		c14.2531,0.1126,28.5107-0.1187,42.7605,0.1277c15.5892,0.2695,26.9788,9.2924,31.1479,23.8381
		c0.8402,2.9314,0.0229,3.3586-2.633,3.3362C518.6623,30.3501,506.8057,30.4066,494.9496,30.4067z"/>
	<path id="XMLID_44_" class="st1" d="M188.4758,30.4063c-7.1844,0.0001-14.3717-0.1181-21.5516,0.0632
		c-2.5734,0.065-3.2561-0.7753-2.8701-3.1564c1.1658-7.1911,2.2576-14.3943,3.3694-21.5941
		c0.2845-1.8427,1.1582-2.5883,3.1893-2.5709c12.1061,0.104,24.2137,0.072,36.3205,0.0292c1.7228-0.0061,2.4901,0.364,2.7658,2.3501
		c1.0557,7.6051,2.3291,15.1828,3.674,22.7436c0.456,2.5635-1.1489,2.126-2.5459,2.1286
		C203.3767,30.4135,195.9262,30.4062,188.4758,30.4063z"/>
	<path id="XMLID_43_" class="st1" d="M527.0602,189.5757c-4.9208,0-9.8435-0.081-14.7614,0.0384
		c-2.0753,0.0504-2.986-0.6069-3.5576-2.7088c-2.0819-7.6545-4.3096-15.2751-6.7314-22.8286
		c-0.9151-2.8541-0.1038-3.366,2.5898-3.3306c9.308,0.1225,18.6189,0.093,27.9278,0.0116c2.0247-0.0177,3.0109,0.5535,3.6815,2.6232
		c2.5275,7.8011,5.2255,15.5509,8.0579,23.2469c0.8766,2.3821,0.4532,3.0442-2.046,2.9841
		C537.1698,189.4903,532.114,189.5757,527.0602,189.5757z"/>
	<path id="XMLID_42_" class="st1" d="M219.9695,189.5744c-4.5296,0.0008-9.0609-0.069-13.5882,0.0334
		c-1.9521,0.0442-2.8701-0.5517-3.1183-2.609c-0.9536-7.9044-2.0207-15.7959-3.1268-23.6807
		c-0.2701-1.9255,0.2918-2.5757,2.2779-2.5589c9.4583,0.0804,18.9179,0.0741,28.3763,0.0028
		c1.6884-0.0127,2.4482,0.6557,2.6529,2.2065c1.0768,8.1572,2.123,16.3186,3.2485,24.469c0.2787,2.0184-0.8237,2.159-2.3341,2.1484
		C229.5619,189.5525,224.7656,189.5736,219.9695,189.5744z"/>
	<path id="XMLID_41_" class="st1" d="M156.9998,189.5751c-4.5255-0.0003-9.0516-0.0448-13.5761,0.0213
		c-1.8502,0.027-3.0454-0.1239-2.6892-2.5709c1.1838-8.1316,2.2567-16.2811,3.2234-24.4413
		c0.207-1.7473,1.1113-1.7979,2.3917-1.7961c9.4502,0.0135,18.9007,0.0408,28.3506-0.0214c1.7595-0.0116,2.359,0.576,2.1259,2.309
		c-1.1138,8.2777-2.2,16.5594-3.2437,24.8463c-0.2595,2.0602-1.7662,1.6269-3.0062,1.6378
		C166.051,189.5994,161.5253,189.5754,156.9998,189.5751z"/>
	<path id="XMLID_40_" class="st1" d="M400.0088,189.575c-4.6583-0.0004-9.3188-0.0838-13.974,0.0372
		c-2.1156,0.055-2.7581-0.7257-2.7352-2.7814c0.0878-7.8516,0.0824-15.7053,0.0026-23.5571
		c-0.0195-1.9203,0.6567-2.5242,2.541-2.5101c9.3161,0.0698,18.6333,0.0682,27.9494,0.0007
		c1.7834-0.0129,2.2633,0.6625,2.2506,2.3399c-0.0609,7.9852-0.103,15.9724,0.0208,23.9561
		c0.0356,2.2968-0.9964,2.584-2.8795,2.5444C408.7944,189.5125,404.4009,189.5754,400.0088,189.575z"/>
	<path id="XMLID_39_" class="st1" d="M472.5139,160.7939c4.5252,0.0004,9.0527,0.0828,13.5747-0.0372
		c2.0084-0.0533,2.8086,0.4608,2.7753,2.6434c-0.1198,7.8508-0.1177,15.7056-0.0015,23.5565
		c0.0321,2.1711-0.7555,2.6763-2.7737,2.6568c-9.0496-0.0878-18.1015-0.1095-27.1504,0.0096
		c-2.4129,0.0317-2.8642-0.9742-2.8393-3.0872c0.0892-7.5854,0.1456-15.1749-0.0259-22.7575
		c-0.0593-2.6225,0.9665-3.1046,3.2657-3.0275C463.7261,160.8978,468.1217,160.7934,472.5139,160.7939z"/>
	<path id="XMLID_38_" class="st1" d="M399.7828,30.4059c-4.5298,0.0004-9.0607-0.0572-13.5889,0.028
		c-1.8831,0.0354-2.9406-0.2691-2.9034-2.5619c0.1206-7.4589,0.0828-14.9213,0.0183-22.3816
		c-0.0151-1.7367,0.6173-2.3229,2.3256-2.3135c9.3258,0.0515,18.6525,0.0719,27.9778-0.0147
		c1.9872-0.0184,2.4566,0.7365,2.437,2.5684c-0.0784,7.3268-0.0973,14.6559,0.0097,21.9819
		c0.0302,2.0653-0.5507,2.8061-2.688,2.7372C408.8457,30.304,404.3126,30.4054,399.7828,30.4059z"/>
	<path id="XMLID_35_" class="st1" d="M188.5999,125.6013c-3.3285-0.0001-6.6875-0.2827-9.9775,0.0731
		c-3.9151,0.4234-3.6026-1.7295-3.2561-4.305c1.613-11.9898,3.1727-23.9867,4.7712-35.9784
		c1.9849-14.8898,3.9737-29.7791,6.0102-44.6618c0.1912-1.3974-0.2559-3.2613,2.3963-3.2005
		c2.5288,0.058,2.2894,1.8244,2.479,3.2629c3.5794,27.1519,7.0584,54.3173,10.7355,81.4558
		c0.4147,3.0607-0.4631,3.5811-3.1765,3.4051C195.2675,125.4375,191.9284,125.6013,188.5999,125.6013z M188.8191,75.256
		c-0.2036-0.043-0.4073-0.086-0.6109-0.1291c-1.7026,13.1813-3.2531,26.3852-5.2104,39.5285
		c-0.5157,3.4631-0.2814,4.6671,3.6269,4.5173c7.7766-0.298,7.9094-0.0853,6.9359-7.9759
		C192.081,99.2041,190.4092,87.2351,188.8191,75.256z"/>
	<path id="XMLID_34_" class="st1" d="M78.5345,140.0583c3.1087-14.5415-5.5512-23.3309-15.4342-31.4927
		c-6.868-5.6719-14.5314-10.3866-20.3414-17.3259c-7.9831-9.5349-12.5462-20.2913-12.3579-32.8873
		c0.0857-5.7303,0.1472-11.4674-0.044-17.1926c-0.0892-2.6715,0.4798-3.7074,3.4314-3.6798
		c2.8215,0.0264,3.2233,1.1121,3.2001,3.5293c-0.0689,7.1912-0.3688,14.4238,0.2474,21.569
		c1.2687,14.7118,9.6053,25.36,20.9861,33.9129c6.3988,4.8089,12.7685,9.6076,18.1904,15.5571
		c5.9775,6.5592,9.6541,13.8752,8.9605,23.095c-0.3889,5.1692-0.2238,10.3979-0.0094,15.5875
		c0.1154,2.7948-1.2421,2.9905-3.3945,2.9138c-1.961-0.0699-3.6966,0.1823-3.4926-2.7935
		C78.722,147.269,78.5345,143.6573,78.5345,140.0583z"/>
	<path id="XMLID_33_" class="st1" d="M104.5812,139.7117c0-4.1263,0.1508-8.2591-0.0271-12.3777
		c-0.6449-14.9289-8.1731-26.1187-19.5275-35.072c-6.1627-4.8595-12.6232-9.3332-18.2227-14.8927
		c-7.2067-7.1553-11.9166-15.2205-10.7352-25.9007c0.4075-3.6838,0.2054-7.4572,0.0257-11.1773
		c-0.1635-3.3863,2.1443-2.5376,4.0117-2.7176c2.1298-0.2054,3.0199,0.2856,2.8832,2.7765
		c-0.2698,4.9127,0.1215,9.8615-0.1448,14.7746c-0.2701,4.9819,1.4583,9.0773,4.4575,12.8537
		c5.3631,6.7529,12.1672,11.8715,19.0258,16.9372c10.3813,7.6675,18.8669,16.7923,22.7383,29.4891
		c1.1701,3.8377,1.9856,7.7409,2.0349,11.7485c0.1015,8.2549-0.031,16.5141,0.1767,24.7654
		c0.0758,3.0127-1.6569,2.6268-3.557,2.7234c-2.0598,0.1048-3.2128-0.2473-3.0776-2.7467
		c0.2011-3.7179,0.0521-7.4548,0.0521-11.1836C104.6571,139.7118,104.6191,139.7117,104.5812,139.7117z"/>
	<path id="XMLID_32_" class="st1" d="M535.0965,59.3766c-0.2932,7.2628,0.7417,15.8085-1.3393,24.2225
		c-2.2012,8.8997-6.9123,15.8369-15.4069,19.6594c-2.6028,1.1713-2.3792,2.4307-1.6158,4.5946
		c4.9062,13.9088,9.7339,27.8457,14.4648,41.8149c0.3854,1.1378,2.4857,3.2258-0.1604,3.7294
		c-2.0321,0.3868-4.9969,1.6581-6.2484-2.1039c-3.6064-10.8411-7.4462-21.6045-11.1951-32.3982
		c-1.8312-5.2725-3.596-10.5695-5.5333-15.8028c-0.6684-1.8053-0.643-2.6709,1.4305-3.5408
		c13.1586-5.5204,19.2976-15.501,18.8901-29.793c-0.2769-9.7132,0.0275-19.4418-0.1354-29.1601
		c-0.0367-2.1943,0.2402-3.2049,2.6724-3.048c2.1362,0.1379,4.3087-0.385,4.2192,3.0224
		C534.9853,46.4282,535.0965,52.2903,535.0965,59.3766z"/>
	<path id="XMLID_31_" class="st1" d="M463.1004,95.6273c0,18.1312-0.0522,36.2628,0.057,54.3933
		c0.0161,2.6794-0.5324,3.6865-3.4603,3.6995c-3.0053,0.0134-3.4207-1.151-3.4155-3.7546
		c0.0726-36.2623,0.0752-72.5248-0.0037-108.7871c-0.0058-2.6765,0.5584-3.6766,3.4742-3.6988
		c3.0205-0.0231,3.4141,1.1559,3.4001,3.7543C463.0542,59.3646,463.1004,77.4961,463.1004,95.6273z"/>
	<path id="XMLID_30_" class="st1" d="M383.5309,95.6021c0-18.1311,0.0476-36.2625-0.0527-54.393
		c-0.0146-2.6375,0.4792-3.7266,3.4438-3.7294c2.97-0.0029,3.437,1.0846,3.4312,3.7251
		c-0.0784,36.262-0.0781,72.5244-0.0004,108.7864c0.0057,2.6343-0.4497,3.7348-3.4267,3.7293
		c-2.9579-0.0055-3.463-1.0824-3.4483-3.7253C383.5788,131.8646,383.5309,113.7332,383.5309,95.6021z"/>
	<path id="XMLID_29_" class="st1" d="M272.7004,95.5998c0,18.1311-0.0491,36.2625,0.0544,54.393
		c0.0151,2.6384-0.4567,3.7319-3.4305,3.7276c-2.9609-0.0043-3.45-1.0879-3.4445-3.727
		c0.0758-36.262,0.0758-72.5243,0.0001-108.7864c-0.0055-2.6387,0.4826-3.7233,3.444-3.7274
		c2.9732-0.0042,3.446,1.0883,3.4309,3.7272C272.6512,59.3373,272.7004,77.4687,272.7004,95.5998z"/>
	<path id="XMLID_28_" class="st1" d="M228.2417,153.6065c-2.0969,0.3991-3.1605-0.338-3.4808-3.0675
		c-3.0873-26.3135-7.4655-52.4408-11.5807-78.6057c-1.6128-10.2549-3.2353-20.5086-4.7534-30.7777
		c-0.1841-1.2454-1.71-3.5026,1.2813-3.4885c2.0731,0.0098,4.8684-1.3623,5.4265,2.6319
		c1.455,10.4135,3.2492,20.7791,4.8051,31.1792c3.328,22.2458,7.2907,44.3962,10.0276,66.7308
		c0.4857,3.9637,0.9681,7.9282,1.5105,11.8842C231.9605,153.6129,231.9963,153.6079,228.2417,153.6065z"/>
	<path id="XMLID_27_" class="st1" d="M169.0269,39.9003c-3.4236,21.9566-6.7098,43.5283-10.1737,65.0714
		c-2.303,14.3231-4.2814,28.6874-6.1944,43.0651c-0.3253,2.4448,0.6932,6.168-4.3211,5.6961
		c-2.6635-0.2507-3.0536-1.0837-2.7355-3.3551c1.5133-10.8055,2.7892-21.6461,4.4355-32.4306
		c3.7948-24.8573,7.7416-49.6914,11.6667-74.5286c0.4593-2.9062-0.151-6.6963,5.0448-5.9212
		C168.8367,37.8089,169.7508,38.1285,169.0269,39.9003z"/>
	<path id="XMLID_26_" class="st1" d="M298.4237,95.5837c-0.0056,18.1155-0.0421,36.2311,0.0375,54.3463
		c0.0108,2.4545-0.1106,3.8366-3.2706,3.8015c-3.0657-0.0341-3.3457-1.2819-3.3411-3.8032
		c0.0651-36.0976,0.0699-72.1955-0.0038-108.2931c-0.0059-2.883,0.4049-4.4457,3.8481-4.1366
		c2.1785,0.1956,2.8191,0.6106,2.8035,2.9401C298.3747,58.8197,298.4292,77.2019,298.4237,95.5837z"/>
	<path id="XMLID_25_" class="st1" d="M409.4939,95.186c0-17.9748,0.0412-35.9497-0.047-53.924
		c-0.0124-2.526,0.2781-3.7611,3.3383-3.793c3.1722-0.0331,3.2758,1.382,3.272,3.822
		c-0.0567,36.2157-0.0585,72.4316,0.0035,108.6473c0.0042,2.4832-0.1802,3.8004-3.3035,3.7956
		c-3.1352-0.0048-3.3151-1.3561-3.3047-3.8249C409.529,131.6682,409.4939,113.427,409.4939,95.186z"/>
	<path id="XMLID_24_" class="st1" d="M501.0769,37.8616c8.0739-0.7351,8.1856-0.6646,8.2175,6.9449
		c0.0363,8.6586-0.047,17.3179,0.0232,25.9761c0.0744,9.1805-5.0637,15.3463-14.5096,16.0325
		c-12.5394,0.911-12.5142,1.2581-12.5142-11.2464c0-11.4562,0.072-22.9131-0.0543-34.3679
		c-0.0288-2.6185,0.4439-3.6724,3.4091-3.7308c3.2785-0.0646,3.2167,1.541,3.2023,3.8887
		c-0.0717,11.7222,0.0926,23.4472-0.1157,35.1661c-0.0561,3.16,1.0028,3.7425,3.8544,3.6517
		c7.489-0.2386,9.9257-2.5965,9.9402-10.2431c0.0154-8.1259-0.0291-16.252,0.0226-24.3775
		C502.5687,42.9978,502.4186,40.5051,501.0769,37.8616z"/>
	<path id="XMLID_23_" class="st1" d="M488.818,120.888c0,9.7273-0.0963,19.4562,0.062,29.181
		c0.0441,2.709-0.5537,3.6594-3.4621,3.6517c-2.8742-0.0076-3.1789-1.1885-3.1648-3.5585
		c0.0831-13.9962,0.1523-27.9948-0.0453-41.9887c-0.044-3.1136,1.2589-3.9877,3.8567-4.0633
		c2.4791-0.0721,5.0984-1.8279,6.309,2.7073c3.8409,14.3891,8.3185,28.6076,12.4124,42.9313
		c0.3163,1.1067,2.4259,3.2834-0.3824,3.6806c-2.0583,0.2911-5.018,1.6555-6.092-2.3217
		c-2.427-8.9874-5.2139-17.8777-7.8561-26.8069c-0.3325-1.1236-0.6743-2.2445-1.0119-3.3666
		C489.235,120.9187,489.0265,120.9034,488.818,120.888z"/>
	<path id="XMLID_22_" class="st1" d="M94.867,68.8001c-4.3953,0.0009-8.795-0.1158-13.1842,0.0476
		c-2.3775,0.0885-3.2494-0.5584-3.2057-3.0893c0.1474-8.5217,0.1431-17.0491-0.0084-25.5707
		c-0.0393-2.2114,0.689-2.8665,2.6914-2.5951c1.7471,0.2368,4.2313-0.9854,4.1705,2.5136
		c-0.1088,6.2581,0.0724,12.5219-0.0758,18.7783c-0.0605,2.5561,0.6505,3.5706,3.354,3.4462
		c4.386-0.2019,8.7913-0.1534,13.1822-0.0152c2.3125,0.0728,2.9798-0.8282,2.939-3.0334
		c-0.1182-6.3909,0.0709-12.7898-0.1568-19.175c-0.0703-1.9711,0.2724-2.8194,2.2271-2.4915
		c1.6758,0.2812,4.3876-1.2476,4.3982,2.2436c0.0273,8.9237-0.0251,17.8479,0.0493,26.7712
		c0.0154,1.8421-0.7826,2.2163-2.396,2.1928C104.191,68.7553,99.5287,68.7992,94.867,68.8001z"/>
	<path id="XMLID_21_" class="st1" d="M330.3729,68.8003c-4.524-0.001-9.0485-0.0426-13.5716,0.0215
		c-1.5874,0.0225-2.4252-0.3069-2.4154-2.168c0.0475-9.0469,0.0303-18.0949-0.0706-27.1413
		c-0.0327-2.926,2.0559-1.6944,3.3583-1.8909c1.8792-0.2835,3.3437-0.0594,3.2944,2.5366
		c-0.1161,6.1184,0.1215,12.2459-0.0932,18.3589c-0.1046,2.9796,0.7745,3.998,3.7986,3.8219
		c4.2435-0.2471,8.5148-0.1545,12.7687-0.0255c2.1198,0.0643,2.755-0.73,2.7241-2.7728
		c-0.0946-6.2523,0.1107-12.5117-0.0982-18.7585c-0.0932-2.7901,0.9983-3.251,3.4561-3.2698
		c2.5161-0.0192,3.4951,0.5731,3.4395,3.2991c-0.1682,8.2462-0.1609,16.4999-0.0035,24.7465
		c0.0511,2.6778-0.8389,3.4146-3.4169,3.2978C339.1612,68.6574,334.7638,68.8012,330.3729,68.8003z"/>
	<path id="XMLID_20_" class="st1" d="M46.7011,123.8773c4.3932-0.0001,8.7889,0.0873,13.1785-0.0374
		c2.1536-0.0612,3.1015,0.49,3.0669,2.8646c-0.1185,8.1191-0.1473,16.2428,0.0055,24.3607c0.0592,3.1432-1.9378,2.4365-3.706,2.5561
		c-1.9759,0.1337-3.244-0.1143-3.1657-2.6871c0.1739-5.7192-0.0568-11.4504,0.1036-17.1703
		c0.0701-2.4995-0.4977-3.5726-3.2544-3.4229c-4.2476,0.2307-8.5261,0.2304-12.7737,0.0002
		c-2.764-0.1498-3.3347,0.9401-3.2647,3.4355c0.1567,5.587-0.1272,11.1891,0.1194,16.7696c0.1319,2.984-1.3122,3.0283-3.5704,3.1349
		c-2.5461,0.1202-3.1201-0.79-3.0772-3.1839c0.1407-7.852,0.1534-15.7101-0.0054-23.5614c-0.0508-2.5086,0.7463-3.2055,3.166-3.1083
		C37.9096,124.0036,42.3079,123.8774,46.7011,123.8773z"/>
	<path id="XMLID_19_" class="st1" d="M330.5658,123.8773c4.5271,0.0004,9.0563,0.0814,13.5804-0.036
		c2.0633-0.0535,2.8114,0.6327,2.7893,2.7303c-0.0853,8.1213-0.1444,16.2462,0.0229,24.3649
		c0.062,3.0033-1.6905,2.5929-3.584,2.7091c-2.2582,0.1386-3.3961-0.3052-3.3021-2.985c0.2007-5.7184-0.0532-11.4521,0.1137-17.1727
		c0.0716-2.4507-0.6483-3.2518-3.1332-3.1411c-4.3853,0.1955-8.7889,0.1577-13.178,0.0118
		c-2.2236-0.0739-3.0442,0.5735-2.9823,2.899c0.1487,5.5883-0.0826,11.1877,0.1035,16.7737
		c0.0893,2.6777-0.5326,3.698-3.4575,3.6867c-2.7951-0.0108-3.2152-1.0523-3.1723-3.478
		c0.1342-7.5872,0.2197-15.1839-0.0322-22.7651c-0.1048-3.1548,0.9871-3.8191,3.852-3.6574
		C322.3008,124.0499,326.4382,123.877,330.5658,123.8773z"/>
	<path id="XMLID_18_" class="st1" d="M201.2474,153.9738c-1.2373,0.5913-2.0049-2.344-3.4659-2.42
		c-6.1055-0.3176-12.2359-0.1715-18.3571-0.1652c-1.3297,0.0014-0.9539,1.9352-2.1429,2.0677
		c-1.8371,0.2047-4.5073,0.9496-5.3327-0.2588c-1.4073-2.0601,0.0936-4.7948,0.3995-7.2164
		c0.2377-1.8814,2.1403-1.1435,3.3339-1.1513c8.7871-0.0575,17.5751-0.0837,26.3619-0.0108
		c5.2709,0.0437,2.7791,4.4402,3.4502,6.8529C206.2697,154.4594,203.6151,153.2656,201.2474,153.9738z"/>
</g>
</svg>
