<!-- Generator: Adobe Illustrator 19.0.0, SVG Export Plug-In  -->
<svg version="1.1"
	 xmlns="http://www.w3.org/2000/svg" xmlns:xlink="http://www.w3.org/1999/xlink" xmlns:a="http://ns.adobe.com/AdobeSVGViewerExtensions/3.0/"
	 x="0px" y="0px" width="42.2891px" height="31.413px" viewBox="0 0 42.2891 31.413"
	 style="enable-background:new 0 0 42.2891 31.413;" xml:space="preserve">
<style type="text/css">
	.st0{fill:none;stroke:url(#XMLID_21_);stroke-width:3;stroke-linecap:round;stroke-linejoin:round;stroke-miterlimit:10;}
	.st1{fill:none;stroke:url(#XMLID_22_);stroke-width:3;stroke-linecap:round;stroke-linejoin:round;stroke-miterlimit:10;}
</style>
<defs>
</defs>
<linearGradient id="XMLID_21_" gradientUnits="userSpaceOnUse" x1="-23.4939" y1="15.7065" x2="42.2891" y2="15.7065">
	<stop  offset="0" style="stop-color:#2196F3"/>
	<stop  offset="1" style="stop-color:#0D47A1"/>
</linearGradient>
<path id="XMLID_15_" class="st0" d="M9.1277,29.378C9.1277,29.378,9.7397,29.3938,9.1277,29.378L9.1277,29.378L9.1277,29.378
	c-3.6584-1.1093-7.4371-4.5473-7.6182-8.5835c-0.2297-5.1179,3.733-9.4284,8.8509-9.6581c0.9281-0.0417,1.8292,0.071,2.686,0.2869
	c1.7472-5.5224,6.7746-9.6339,12.8974-9.9087c7.839-0.3518,14.4789,5.7208,14.8307,13.5598s-5.7178,14.4805-13.5567,14.8323
	c-0.662,0.0297-1.3109-0.0505-1.9521-0.1102L9.1277,29.378z M26.6269,21.3568l0.0035-10.0834 M21.6078,16.3341l5.0225-5.0607
	 M31.6911,16.2959l-5.0607-5.0225"/>
</svg>
