<!-- Generator: Adobe Illustrator 19.0.0, SVG Export Plug-In  -->
<svg version="1.1"
	 xmlns="http://www.w3.org/2000/svg" xmlns:xlink="http://www.w3.org/1999/xlink" xmlns:a="http://ns.adobe.com/AdobeSVGViewerExtensions/3.0/"
	 x="0px" y="0px" width="97.9027px" height="43.5px" viewBox="0 0 97.9027 43.5" style="enable-background:new 0 0 97.9027 43.5;"
	 xml:space="preserve">
<style type="text/css">
	.st0{fill:none;stroke:url(#XMLID_31_);stroke-width:3;stroke-linecap:round;stroke-linejoin:round;stroke-miterlimit:10;}
	.st1{fill:none;stroke:url(#XMLID_32_);stroke-width:3;stroke-linecap:round;stroke-linejoin:round;stroke-miterlimit:10;}
</style>
<defs>
</defs>
<linearGradient id="XMLID_31_" gradientUnits="userSpaceOnUse" x1="-54.3904" y1="21.75" x2="97.9027" y2="21.75">
	<stop  offset="0" style="stop-color:#2196F3"/>
	<stop  offset="1" style="stop-color:#0D47A1"/>
</linearGradient>
<path id="XMLID_15_" class="st0" d="M64.7413,34.7707C64.7413,34.7707,65.3533,34.7865,64.7413,34.7707L64.7413,34.7707
	L64.7413,34.7707c-3.6584-1.1093-7.4371-4.5473-7.6182-8.5835c-0.2297-5.1179,3.733-9.4284,8.8509-9.6581
	c0.9281-0.0417,1.8292,0.071,2.686,0.2869c1.7472-5.5224,6.7746-9.6339,12.8974-9.9087c7.839-0.3518,14.4789,5.7208,14.8307,13.5598
	s-5.7178,14.4804-13.5567,14.8323c-0.662,0.0297-1.3109-0.0505-1.9521-0.1102L64.7413,34.7707z M82.2405,26.7495l0.0035-10.0834
	 M82.244,16.6661l-5.0225,5.0607 M87.3047,21.6886l-5.0607-5.0225 M1.5,12.8683 M1.5,30.6317 M12.8683,42
	c6.1337-4.6274,10.0999-11.9748,10.0999-20.25c0-8.2753-3.9663-15.6228-10.0999-20.25 M7.0116,36.1432
	c3.6836-3.6835,5.9619-8.7722,5.9619-14.3932S10.6952,11.0403,7.0116,7.3568 M1.5,30.6317
	c1.7031-2.5395,2.6976-5.5943,2.6976-8.8817S3.2031,15.4079,1.5,12.8683 M1.5,30.6317c1.7031-2.5395,2.6976-5.5943,2.6976-8.8817
	S3.2031,15.4079,1.5,12.8683 M39.2,17v12 M44.7,23.5h-12"/>
</svg>
