<!-- Generator: Adobe Illustrator 19.0.0, SVG Export Plug-In  -->
<svg version="1.1"
	 xmlns="http://www.w3.org/2000/svg" xmlns:xlink="http://www.w3.org/1999/xlink" xmlns:a="http://ns.adobe.com/AdobeSVGViewerExtensions/3.0/"
	 x="0px" y="0px" width="169.7457px" height="24.7022px" viewBox="0 0 169.7457 24.7022"
	 style="enable-background:new 0 0 169.7457 24.7022;" xml:space="preserve">
<style type="text/css">
	.st0{fill:#FFFFFF;}
</style>
<defs>
</defs>
<g id="XMLID_15_">
	<g id="XMLID_36_">
		<path id="XMLID_37_" class="st0" d="M165.4956,13.8506h-140c-0.8286,0-1.5-0.6719-1.5-1.5s0.6714-1.5,1.5-1.5h140
			c0.8286,0,1.5,0.6719,1.5,1.5S166.3242,13.8506,165.4956,13.8506z"/>
	</g>
	<g id="XMLID_34_">
		<path id="XMLID_35_" class="st0" d="M1.5009,13.8506c-0.605,0-1.1748-0.3682-1.4023-0.9668
			c-0.2949-0.7744,0.0942-1.6406,0.8687-1.9355L29.4887,0.0967c0.5737-0.2158,1.2217-0.0635,1.6367,0.3867
			c0.4155,0.4512,0.5142,1.1094,0.2495,1.6631l-5.1924,10.8516c-0.3569,0.7471-1.2524,1.0625-2.0005,0.7061
			c-0.7471-0.3584-1.063-1.2539-0.7056-2.001l3.5737-7.4688L2.0336,13.753C1.8584,13.8194,1.6782,13.8506,1.5009,13.8506z"/>
	</g>
	<g id="XMLID_32_">
		<path id="XMLID_33_" class="st0" d="M30.0214,24.7022c-0.1787,0-0.3594-0.0322-0.5327-0.0977L0.9672,13.753
			c-0.7744-0.2949-1.1636-1.1611-0.8687-1.9355c0.2944-0.7734,1.1621-1.1621,1.9351-0.8691l25.0166,9.5186l-3.5737-7.4687
			c-0.3574-0.7471-0.0415-1.6426,0.7056-2.001c0.748-0.3564,1.6421-0.041,2.0005,0.7061l5.1924,10.8516
			c0.2646,0.5537,0.166,1.2119-0.2495,1.6631C30.8359,24.5323,30.4331,24.7022,30.0214,24.7022z"/>
	</g>
	<g id="XMLID_30_">
		<path id="XMLID_31_" class="st0" d="M142.4951,13.8506c-0.3525,0-0.7061-0.123-0.9912-0.374
			c-0.6216-0.5479-0.6816-1.4961-0.1338-2.1172l9.25-10.5c0.5483-0.623,1.4966-0.6807,2.1172-0.1348
			c0.6216,0.5479,0.6816,1.4961,0.1338,2.1172l-9.25,10.5C143.3247,13.6788,142.9106,13.8506,142.4951,13.8506z"/>
	</g>
	<g id="XMLID_28_">
		<path id="XMLID_29_" class="st0" d="M158.9951,13.8506c-0.3525,0-0.7061-0.123-0.9912-0.374
			c-0.6216-0.5479-0.6816-1.4961-0.1338-2.1172l9.25-10.5c0.5483-0.623,1.4961-0.6807,2.1172-0.1348
			c0.6216,0.5479,0.6816,1.4961,0.1338,2.1172l-9.25,10.5C159.8247,13.6788,159.4106,13.8506,158.9951,13.8506z"/>
	</g>
	<g id="XMLID_26_">
		<path id="XMLID_27_" class="st0" d="M150.7451,13.8506c-0.3525,0-0.7061-0.123-0.9912-0.374
			c-0.6216-0.5479-0.6816-1.4961-0.1338-2.1172l9.25-10.5c0.5483-0.623,1.4966-0.6807,2.1172-0.1348
			c0.6216,0.5479,0.6816,1.4961,0.1338,2.1172l-9.25,10.5C151.5747,13.6788,151.1606,13.8506,150.7451,13.8506z"/>
	</g>
	<g id="XMLID_24_">
		<path id="XMLID_25_" class="st0" d="M134.2451,13.8506c-0.3525,0-0.7061-0.123-0.9912-0.374
			c-0.6216-0.5479-0.6816-1.4961-0.1338-2.1172l9.25-10.5c0.5483-0.623,1.4961-0.6807,2.1172-0.1348
			c0.6216,0.5479,0.6816,1.4961,0.1338,2.1172l-9.25,10.5C135.0747,13.6788,134.6606,13.8506,134.2451,13.8506z"/>
	</g>
	<g id="XMLID_22_">
		<path id="XMLID_23_" class="st0" d="M151.746,23.8506c-0.4155,0-0.8296-0.1719-1.126-0.5088l-9.25-10.5
			c-0.5479-0.6211-0.4878-1.5693,0.1338-2.1172c0.6226-0.5459,1.5703-0.4863,2.1172,0.1348l9.25,10.5
			c0.5479,0.6211,0.4878,1.5693-0.1338,2.1172C152.4521,23.7276,152.0981,23.8506,151.746,23.8506z"/>
	</g>
	<g id="XMLID_20_">
		<path id="XMLID_21_" class="st0" d="M168.246,23.8506c-0.4155,0-0.8296-0.1719-1.126-0.5088l-9.25-10.5
			c-0.5479-0.6211-0.4878-1.5693,0.1338-2.1172c0.6221-0.5459,1.5698-0.4863,2.1172,0.1348l9.25,10.5
			c0.5479,0.6211,0.4878,1.5693-0.1338,2.1172C168.9521,23.7276,168.5981,23.8506,168.246,23.8506z"/>
	</g>
	<g id="XMLID_18_">
		<path id="XMLID_19_" class="st0" d="M159.996,23.8506c-0.4155,0-0.8296-0.1719-1.126-0.5088l-9.25-10.5
			c-0.5479-0.6211-0.4878-1.5693,0.1338-2.1172c0.6221-0.5459,1.5698-0.4863,2.1172,0.1348l9.25,10.5
			c0.5479,0.6211,0.4878,1.5693-0.1338,2.1172C160.7021,23.7276,160.3481,23.8506,159.996,23.8506z"/>
	</g>
	<g id="XMLID_16_">
		<path id="XMLID_17_" class="st0" d="M143.496,23.8506c-0.4155,0-0.8296-0.1719-1.126-0.5088l-9.25-10.5
			c-0.5479-0.6211-0.4878-1.5693,0.1338-2.1172c0.6221-0.5459,1.5703-0.4863,2.1172,0.1348l9.25,10.5
			c0.5479,0.6211,0.4878,1.5693-0.1338,2.1172C144.2021,23.7276,143.8481,23.8506,143.496,23.8506z"/>
	</g>
</g>
</svg>
