<svg xmlns="http://www.w3.org/2000/svg" xmlns:xlink="http://www.w3.org/1999/xlink" version="1.1" x="0px" y="0px" viewBox="0 0 100 125" enable-background="new 0 0 100 100" xml:space="preserve"><path fill="#3D5AFE"  d="M56.8,8.5c-13.6,0-24.5,11-24.5,24.5c0,13.6,11,24.5,24.5,24.5s24.5-11,24.5-24.5C81.4,19.4,70.4,8.5,56.8,8.5z M63.9,42.7  c-1.1,1.3-2.5,2.2-4.1,2.6c-0.7,0.2-1,0.6-1,1.3c0,0.7,0,1.4,0,2.2c0,0.6-0.3,1-1,1c-0.4,0-0.8,0-1.2,0c-0.4,0-0.7,0-1.1,0  c-0.7,0-1-0.4-1-1.1c0-0.5,0-1.1,0-1.6c0-1.2,0-1.2-1.2-1.4c-1.4-0.2-2.8-0.6-4.2-1.2c-1-0.5-1.1-0.8-0.8-1.8  c0.2-0.8,0.4-1.6,0.7-2.4c0.2-0.6,0.4-0.8,0.7-0.8c0.2,0,0.4,0.1,0.7,0.3c1.5,0.8,3,1.2,4.6,1.4c0.3,0,0.6,0.1,0.8,0.1  c0.8,0,1.5-0.1,2.2-0.5c1.8-0.8,2.1-2.9,0.6-4.1c-0.5-0.4-1.1-0.7-1.7-1c-1.6-0.7-3.2-1.2-4.7-2.1c-2.4-1.5-4-3.4-3.8-6.4  c0.2-3.3,2.1-5.4,5.1-6.5c1.3-0.5,1.3-0.4,1.3-1.8c0-0.4,0-0.9,0-1.3c0-1,0.2-1.2,1.2-1.2c0.1,0,0.2,0,0.3,0c0.2,0,0.4,0,0.6,0  c0.1,0,0.2,0,0.2,0c1.9,0,1.9,0.1,1.9,2.1c0,1.5,0,1.5,1.5,1.7c1.1,0.2,2.2,0.5,3.3,1c0.6,0.3,0.8,0.7,0.6,1.3  c-0.3,0.9-0.5,1.8-0.8,2.7c-0.2,0.5-0.4,0.8-0.7,0.8c-0.2,0-0.4-0.1-0.7-0.2c-1.5-0.7-3-1-4.6-1c-0.2,0-0.4,0-0.6,0  c-0.5,0-0.9,0.1-1.4,0.3c-1.6,0.7-1.8,2.4-0.5,3.5c0.7,0.5,1.4,0.9,2.3,1.3c1.4,0.6,2.8,1.1,4.1,1.9C65.7,33.8,66.8,39.1,63.9,42.7z   M94.3,63c-1.8-0.1-5.6,2-6.7,2.5c-3.7,1.9-8.8,5-12.2,7.4c-0.2,0.2-0.5,0.4-0.8,0.5c-1.5,1-3.1,1.7-4.9,2.1  c-9.8,2.2-24.1,2.4-24.1,2.4l-0.8,0c-0.6,0-1.2-0.4-1.3-1c-0.1-0.7,0.4-1.3,1.1-1.4l21.2-2.1c2.3-0.3,4.2-2.5,3.9-5.1  c-0.3-2.6-2.5-4.4-4.9-4.2l-18.9-0.2c-1.3,0-3.3-0.3-4.6-0.7c-12.2-3.7-19-0.2-22.7,1.4c-0.8-1.4-2.4-2.3-4.1-2.2L6.7,63  c-2.7,0.2-4.7,2.5-4.6,5.2L3.4,87c0.2,2.7,2.5,4.7,5.2,4.6l8.1-0.6c1.7-0.1,3.1-1.2,3.7-2.7l35.7,1.6c4,0.4,7.7-0.1,11.2-2l1-0.6  l27-16.4c1.3-0.8,2.3-2.2,2.3-3.8C97.9,65.3,96.9,63.2,94.3,63z M11.6,87.1c-1.5,0-2.8-1.2-2.8-2.8c0-1.5,1.2-2.8,2.8-2.8  c1.5,0,2.8,1.2,2.8,2.8C14.4,85.9,13.2,87.1,11.6,87.1z M73.8,65.9c2.8-1.6,8.4-4.4,11.5-5.7c1.5-0.6,3-0.6,4.4,0.4  c-1.1,0.4-2.1,0.9-3.1,1.4c-3.2,1.7-8.8,4.8-11.6,6.8c-0.3,0.2-0.6,0.4-0.8,0.6c0-0.5,0-1,0-1.6c-0.1-0.7-0.2-1.3-0.4-1.9  C73.8,66,73.8,65.9,73.8,65.9z M70.1,61.2c1.9-1,6.1-2.4,7.9-3.2c1.5-0.6,3-0.6,4.4,0.4c-2.2,1-6.4,2.6-8.4,3.7l-1.4,0.8  c-0.1,0.1-0.2,0.2-0.4,0.3C71.6,62.4,70.9,61.7,70.1,61.2z"/></svg>