<!-- Generator: Adobe Illustrator 21.0.2, SVG Export Plug-In  -->
<svg version="1.1"
	 xmlns="http://www.w3.org/2000/svg" xmlns:xlink="http://www.w3.org/1999/xlink" xmlns:a="http://ns.adobe.com/AdobeSVGViewerExtensions/3.0/"
	 x="0px" y="0px" width="43px" height="43px" viewBox="0 0 43 43" style="enable-background:new 0 0 43 43;" xml:space="preserve">
<style type="text/css">
	.st0{fill:url(#SVGID_1_);}
	.st1{fill:url(#SVGID_2_);}
</style>
<defs>
</defs>
<linearGradient id="SVGID_1_" gradientUnits="userSpaceOnUse" x1="0" y1="21.5" x2="43" y2="21.5">
	<stop  offset="0" style="stop-color:#2196F3"/>
	<stop  offset="1" style="stop-color:#0D47A1"/>
</linearGradient>
<path class="st0" d="M21.5,5c2.6,0,4.8,2.1,4.8,4.8s-2.1,4.8-4.8,4.8s-4.8-2.1-4.8-4.8S18.9,5,21.5,5 M21.5,0
	c-5.4,0-9.8,4.4-9.8,9.8s4.4,9.8,9.8,9.8s9.8-4.4,9.8-9.8S26.9,0,21.5,0L21.5,0z M21.5,24.6c8.1,0,14.8,5.8,16.2,13.4H5.3
	C6.7,30.4,13.4,24.6,21.5,24.6 M21.5,19.6L21.5,19.6C9.6,19.6,0,29.2,0,41.1V43h43v-1.9C43,29.2,33.4,19.6,21.5,19.6L21.5,19.6z"/>
</svg>
