<!-- Generator: Adobe Illustrator 21.0.2, SVG Export Plug-In  -->
<svg version="1.1"
	 xmlns="http://www.w3.org/2000/svg" xmlns:xlink="http://www.w3.org/1999/xlink" xmlns:a="http://ns.adobe.com/AdobeSVGViewerExtensions/3.0/"
	 x="0px" y="0px" width="42.9px" height="43px" viewBox="0 0 42.9 43" style="enable-background:new 0 0 42.9 43;"
	 xml:space="preserve">
<style type="text/css">
	.st0{fill:url(#SVGID_1_);}
	.st1{fill:url(#SVGID_2_);}
</style>
<defs>
</defs>
<linearGradient id="SVGID_1_" gradientUnits="userSpaceOnUse" x1="0" y1="21.5" x2="42.9053" y2="21.5">
	<stop  offset="0" style="stop-color:#2196F3"/>
	<stop  offset="1" style="stop-color:#0D47A1"/>
</linearGradient>
<path class="st0" d="M11,24c4.4,0,8,3.6,8,8s-3.6,8-8,8s-8-3.6-8-8S6.6,24,11,24 M11,21C4.9,21,0,25.9,0,32s4.9,11,11,11
	c6.1,0,11-4.9,11-11S17.1,21,11,21L11,21z M32.4,3c4.1,0,7.5,3.4,7.5,7.5c0,4.1-3.4,7.5-7.5,7.5s-7.5-3.4-7.5-7.5
	C24.9,6.4,28.3,3,32.4,3 M32.4,0c-5.8,0-10.5,4.7-10.5,10.5S26.6,21,32.4,21s10.5-4.7,10.5-10.5S38.2,0,32.4,0L32.4,0z M33.5,11.7
	l-2.1-2.1L9.9,30.9l2.1,2.1L33.5,11.7z"/>
</svg>
